<svg version="1.1" id="Layer_1" xmlns="http://www.w3.org/2000/svg" xmlns:xlink="http://www.w3.org/1999/xlink" x="0px" y="0px"
	 width="100%" viewBox="0 0 1200 800" enable-background="new 0 0 1200 800" xml:space="preserve">
<path fill="#EE1C25" opacity="1.000000" stroke="none" 
	d="
M665.000000,801.000000 
	C443.360962,801.000000 222.221909,801.000000 1.041426,801.000000 
	C1.041426,534.394226 1.041426,267.788513 1.041426,1.091375 
	C400.889099,1.091375 800.778259,1.091375 1200.833740,1.091375 
	C1200.833740,267.666595 1200.833740,534.333252 1200.833740,801.000000 
	C1022.455017,801.000000 843.977478,801.000000 665.000000,801.000000 
M606.589783,389.045868 
	C615.743530,375.952911 627.963684,367.701721 644.035400,365.977203 
	C661.830566,364.067749 676.804260,369.954346 688.797607,383.219269 
	C700.427734,396.082611 714.775818,403.375153 732.142944,403.943359 
	C752.057556,404.594940 768.288208,396.793243 781.288940,381.732452 
	C796.697205,363.882843 821.072754,363.270477 837.601440,380.070648 
	C838.202332,380.681366 838.920715,381.176422 839.885498,381.974579 
	C830.339417,323.058441 774.423035,274.982666 706.157837,283.085785 
	C651.449524,289.579712 598.360840,344.540741 602.243591,391.160950 
	C603.563721,388.375977 604.831055,385.702332 606.528748,383.425598 
	C606.758789,383.741089 606.988892,384.056549 607.090942,385.053558 
	C606.726990,386.364532 606.363037,387.675507 605.456421,389.154327 
	C605.472229,389.571838 605.488037,389.989380 605.503906,390.406891 
	C605.634033,389.906006 605.764221,389.405090 606.589783,389.045868 
M598.047424,476.856049 
	C597.756470,476.813934 597.465454,476.771820 597.389282,475.999451 
	C607.565430,455.114685 609.893616,433.521423 603.668884,410.709290 
	C603.263367,416.279022 603.444458,421.520874 602.425354,426.517914 
	C596.365662,456.228760 569.728943,472.959076 538.789001,466.749390 
	C513.070557,461.587646 487.470642,473.124786 474.432434,495.627899 
	C469.126587,504.785461 467.191376,514.787842 466.086639,525.142273 
	C464.347809,541.439819 451.791962,554.676819 435.651886,557.010010 
	C430.549805,557.747498 425.251160,557.125183 419.890289,557.125183 
	C441.600342,580.939270 486.987946,599.271667 533.231018,586.971436 
	C582.391602,573.895142 617.976868,531.803772 622.499390,481.424103 
	C624.726440,456.616058 619.784912,433.435699 606.960754,412.076904 
	C611.600464,434.711365 609.595947,456.347809 598.047424,476.856049 
M653.983093,414.141724 
	C640.658020,406.380005 626.337830,401.977203 610.603516,401.383911 
	C613.015076,402.240662 615.167175,403.026337 617.333252,403.771301 
	C630.195007,408.194702 640.032349,416.301666 646.259094,428.384521 
	C655.213257,445.760162 654.043762,462.834778 644.672913,479.873230 
	C631.958313,502.991394 633.499451,525.554932 648.938416,546.927795 
	C655.740234,556.343933 665.223450,562.376343 675.855103,566.934082 
	C693.186890,574.364197 702.046692,591.767944 697.782837,609.741272 
	C696.796997,613.896484 694.816956,617.815918 693.164673,622.187012 
	C744.754028,595.502380 773.027283,530.314148 747.802002,469.803680 
	C722.183472,408.350067 657.511597,386.687653 609.941589,399.190063 
	C627.291199,400.391968 642.401550,404.393036 655.284424,413.811676 
	C655.073914,413.990936 654.863342,414.170166 653.983093,414.141724 
M594.212158,408.788269 
	C592.585388,409.535248 590.906433,410.186707 589.339600,411.043304 
	C557.341248,428.535980 525.505005,428.254425 493.841431,410.181610 
	C492.439514,409.381439 491.240662,408.225494 489.947235,407.235291 
	C490.118042,406.863861 490.288879,406.492462 490.459686,406.121033 
	C522.854736,425.858612 555.558105,427.309265 588.548462,408.572571 
	C587.294739,408.237396 586.076111,408.526398 584.864441,408.842285 
	C576.345886,411.063110 567.801941,411.483948 559.182068,409.380280 
	C536.462708,403.835632 522.390991,386.819427 519.109192,361.546265 
	C516.252258,339.545410 504.459808,323.721252 484.541199,314.121399 
	C470.374298,307.293579 455.701935,307.966064 440.621460,311.102753 
	C420.939911,315.196503 401.820740,301.822205 397.870850,282.079254 
	C397.674927,281.099915 397.449951,280.126343 397.259277,279.146027 
	C397.076324,278.205475 396.920410,277.259644 396.591644,275.411011 
	C385.587646,298.414062 381.293488,321.655090 385.345001,345.761963 
	C393.507141,394.327484 420.865662,428.158813 467.754700,443.187683 
	C514.596680,458.201416 556.373413,446.692139 591.570740,412.100525 
	C592.594971,411.093903 593.786560,410.257507 594.649475,408.779938 
	C594.438904,408.700928 594.228271,408.621948 594.017700,408.542999 
	C594.320374,408.803009 594.623108,409.063049 594.212158,408.788269 
M645.030151,175.482239 
	C648.721252,173.019119 652.412354,170.556000 655.967957,168.183258 
	C608.639465,158.935608 542.747986,187.822021 523.927917,254.249039 
	C505.217621,320.288666 546.167419,379.929993 592.185486,396.116119 
	C587.815613,392.049835 583.445740,387.983582 579.075867,383.917297 
	C579.656006,383.326569 580.236084,382.735809 580.816223,382.145081 
	C583.334412,385.791565 585.852600,389.438019 588.370728,393.084503 
	C589.006653,392.509064 589.642517,391.933655 590.278442,391.358215 
	C589.816345,390.391083 589.448303,389.364319 588.878601,388.465393 
	C570.922974,360.135010 580.763306,326.150146 611.014160,312.074524 
	C646.457153,295.583008 658.288513,257.547821 638.477478,223.785843 
	C628.597351,206.948090 630.750000,189.848419 645.030151,175.482239 
M418.578003,556.478088 
	C418.578003,556.478088 418.687988,556.432739 418.578003,556.478088 
z"/>
<path fill="#FFFDFD" opacity="1.000000" stroke="none" 
	d="
M644.763794,175.723999 
	C630.750000,189.848419 628.597351,206.948090 638.477478,223.785843 
	C658.288513,257.547821 646.457153,295.583008 611.014160,312.074524 
	C580.763306,326.150146 570.922974,360.135010 588.878601,388.465393 
	C589.448303,389.364319 589.816345,390.391083 590.278442,391.358215 
	C589.642517,391.933655 589.006653,392.509064 588.370728,393.084503 
	C585.852600,389.438019 583.334412,385.791565 580.816223,382.145081 
	C580.236084,382.735809 579.656006,383.326569 579.075867,383.917297 
	C583.445740,387.983582 587.815613,392.049835 592.185486,396.116119 
	C546.167419,379.929993 505.217621,320.288666 523.927917,254.249039 
	C542.747986,187.822021 608.639465,158.935608 655.967957,168.183258 
	C652.412354,170.556000 648.721252,173.019119 644.763794,175.723999 
M569.423279,370.574005 
	C570.550964,372.069061 571.678589,373.564117 572.806274,375.059174 
	C573.163696,374.777679 573.521118,374.496185 573.878540,374.214691 
	C572.696533,372.367462 571.514465,370.520233 570.152161,367.992462 
	C563.952026,356.432709 560.025452,344.195404 558.941284,331.069397 
	C557.299805,311.195953 561.965576,292.817474 572.323181,275.191132 
	C572.811890,274.181519 573.300598,273.171906 573.789368,272.162292 
	C573.414795,271.929779 573.040222,271.697296 572.665649,271.464783 
	C571.986023,272.529724 571.306335,273.594666 570.110046,275.114960 
	C552.364319,306.536224 551.724487,338.114960 569.423279,370.574005 
M590.514709,248.070770 
	C587.079529,244.943527 583.644287,241.816299 579.669983,238.198242 
	C579.899109,241.353821 579.648010,244.223724 580.395630,246.804291 
	C581.733154,251.421249 579.806213,253.459274 575.698364,254.751480 
	C573.094055,255.570724 570.670654,256.964935 567.333679,258.479004 
	C572.836914,259.784607 577.290405,260.841156 581.716614,261.891235 
	C582.259094,266.635498 582.760254,271.018585 583.422302,276.809448 
	C585.872437,272.679932 587.453369,269.449860 589.603394,266.657990 
	C590.518066,265.470154 592.685913,264.513947 594.175842,264.649017 
	C597.729797,264.971161 601.219238,266.004974 605.820801,266.981995 
	C602.109985,262.705078 599.091980,259.226654 595.995728,255.658066 
	C597.220276,253.524261 598.365051,251.527863 599.511414,249.532394 
	C600.638672,247.570068 601.767700,245.608734 603.527893,242.548050 
	C598.709778,244.646149 594.981689,246.269592 590.514709,248.070770 
M573.732056,377.183044 
	C575.341248,379.219269 576.950378,381.255463 578.559570,383.291656 
	C578.997498,382.894714 579.435425,382.497803 579.873291,382.100861 
	C577.738342,379.329193 575.603394,376.557556 573.468445,373.785889 
	C573.087769,374.005402 572.707092,374.224884 572.326416,374.444397 
	C572.606445,375.126587 572.886536,375.808807 573.732056,377.183044 
z"/>
<path fill="#FFFDFD" opacity="1.000000" stroke="none" 
	d="
M594.900085,409.341766 
	C593.786560,410.257507 592.594971,411.093903 591.570740,412.100525 
	C556.373413,446.692139 514.596680,458.201416 467.754700,443.187683 
	C420.865662,428.158813 393.507141,394.327484 385.345001,345.761963 
	C381.293488,321.655090 385.587646,298.414062 396.591644,275.411011 
	C396.920410,277.259644 397.076324,278.205475 397.259277,279.146027 
	C397.449951,280.126343 397.674927,281.099915 397.870850,282.079254 
	C401.820740,301.822205 420.939911,315.196503 440.621460,311.102753 
	C455.701935,307.966064 470.374298,307.293579 484.541199,314.121399 
	C504.459808,323.721252 516.252258,339.545410 519.109192,361.546265 
	C522.390991,386.819427 536.462708,403.835632 559.182068,409.380280 
	C567.801941,411.483948 576.345886,411.063110 584.864441,408.842285 
	C586.076111,408.526398 587.294739,408.237396 588.548462,408.572571 
	C555.558105,427.309265 522.854736,425.858612 490.459686,406.121033 
	C490.288879,406.492462 490.118042,406.863861 489.947235,407.235291 
	C491.240662,408.225494 492.439514,409.381439 493.841431,410.181610 
	C525.505005,428.254425 557.341248,428.535980 589.339600,411.043304 
	C590.906433,410.186707 592.585388,409.535248 594.522522,409.037170 
	C594.832886,409.286041 594.900085,409.341766 594.900085,409.341766 
M473.536224,355.832825 
	C470.473969,357.092285 467.335876,358.198181 464.373657,359.660370 
	C462.047852,360.808441 460.521881,360.473236 458.908813,358.427673 
	C456.709564,355.638641 454.201965,353.092773 451.074554,349.603607 
	C451.482605,354.211639 451.538300,357.537323 452.129333,360.764984 
	C452.734680,364.070801 451.392395,365.582184 448.450867,366.602325 
	C445.489227,367.629364 442.672333,369.073730 438.986572,370.687988 
	C440.929321,371.283539 441.858124,371.637390 442.818085,371.851990 
	C452.996521,374.127441 452.988495,374.122620 454.333282,384.075684 
	C454.504791,385.345215 454.835266,386.593262 455.092102,387.851227 
	C458.974060,377.026794 465.960663,373.994812 476.761108,379.473511 
	C473.773499,375.180023 468.945251,371.987000 468.610535,368.377350 
	C468.250671,364.496216 472.107544,360.224060 474.371857,355.891174 
	C474.254913,355.865448 474.138000,355.839722 474.021057,355.813995 
	C474.098541,355.946686 474.176025,356.079346 473.536224,355.832825 
M471.471802,391.146423 
	C472.088867,391.379456 472.705933,391.612457 473.322968,391.845490 
	C473.491608,391.583984 473.660278,391.322479 473.828918,391.060974 
	C472.628357,389.698914 471.427795,388.336853 470.227234,386.974792 
	C469.890747,387.258759 469.554260,387.542755 469.217804,387.826752 
	C469.783447,388.712128 470.349091,389.597504 471.471802,391.146423 
M484.399719,401.073090 
	C483.434479,400.517609 482.469238,399.962128 481.504028,399.406647 
	C481.266846,399.799591 481.029663,400.192535 480.792480,400.585480 
	C482.623993,401.973694 484.455505,403.361877 486.287018,404.750092 
	C486.529144,404.445007 486.771240,404.139954 487.013367,403.834869 
	C486.378296,403.124115 485.743195,402.413330 484.399719,401.073090 
M486.168762,404.133392 
	C487.432922,405.297485 488.697113,406.461578 489.961273,407.625641 
	C490.276276,407.230255 490.591278,406.834869 490.906250,406.439484 
	C489.600372,405.462067 488.294464,404.484680 486.168762,404.133392 
z"/>
<path fill="#FFFDFD" opacity="1.000000" stroke="none" 
	d="
M655.922974,413.282288 
	C642.401550,404.393036 627.291199,400.391968 609.941589,399.190063 
	C657.511597,386.687653 722.183472,408.350067 747.802002,469.803680 
	C773.027283,530.314148 744.754028,595.502380 693.164673,622.187012 
	C694.816956,617.815918 696.796997,613.896484 697.782837,609.741272 
	C702.046692,591.767944 693.186890,574.364197 675.855103,566.934082 
	C665.223450,562.376343 655.740234,556.343933 648.938416,546.927795 
	C633.499451,525.554932 631.958313,502.991394 644.672913,479.873230 
	C654.043762,462.834778 655.213257,445.760162 646.259094,428.384521 
	C640.032349,416.301666 630.195007,408.194702 617.333252,403.771301 
	C615.167175,403.026337 613.015076,402.240662 610.603516,401.383911 
	C626.337830,401.977203 640.658020,406.380005 654.601746,414.545074 
	C656.351990,415.532928 657.483582,416.117462 658.615173,416.701965 
	C658.842346,416.304565 659.069458,415.907166 659.296570,415.509766 
	C658.172058,414.767273 657.047546,414.024780 655.922974,413.282288 
M669.149719,425.682495 
	C687.396790,442.858490 696.754822,464.282013 699.374390,488.937836 
	C698.784241,463.116608 689.346741,441.305511 669.579895,423.261383 
	C668.561768,422.541779 667.543640,421.822174 666.525513,421.102570 
	C666.245911,421.493896 665.966309,421.885223 665.686707,422.276550 
	C666.749634,423.206726 667.812561,424.136902 669.149719,425.682495 
M690.969055,519.756958 
	C691.315186,522.966675 691.661255,526.176331 692.129883,530.522217 
	C694.169250,527.132690 695.830383,524.858521 696.978271,522.349548 
	C698.686646,518.615540 700.888123,517.090759 705.088379,518.720032 
	C707.669861,519.721375 710.589172,519.852051 714.444214,520.578552 
	C710.691040,516.294373 707.757080,512.945190 704.726196,509.485504 
	C707.028381,505.410706 709.241333,501.493774 712.142700,496.358276 
	C707.957092,498.187164 705.030273,499.266388 702.299500,500.715088 
	C699.538147,502.180023 697.560669,502.052429 695.585938,499.335968 
	C693.633789,496.650757 691.185181,494.326416 688.248413,491.058075 
	C688.627869,495.690308 688.631104,499.044891 689.245911,502.283356 
	C689.835815,505.390839 688.711609,506.826904 685.923706,507.845917 
	C682.866150,508.963501 679.960571,510.496948 675.958862,512.317749 
	C680.775940,513.401489 684.278076,513.875122 687.517761,515.063965 
	C688.928589,515.581726 689.800720,517.567261 690.969055,519.756958 
M661.559021,419.100281 
	C662.801025,419.947327 664.043030,420.794342 665.285034,421.641388 
	C665.553284,421.077881 665.821594,420.514374 666.089905,419.950867 
	C664.434021,419.334930 662.778137,418.719025 661.559021,419.100281 
M661.700012,417.656891 
	C660.792908,416.897705 659.885742,416.138550 658.978638,415.379364 
	C658.713745,415.730927 658.448853,416.082489 658.184021,416.434052 
	C659.059753,417.071045 659.935547,417.708069 661.700012,417.656891 
z"/>
<path fill="#FFFDFD" opacity="1.000000" stroke="none" 
	d="
M598.920349,476.983063 
	C609.595947,456.347809 611.600464,434.711365 606.960754,412.076904 
	C619.784912,433.435699 624.726440,456.616058 622.499390,481.424103 
	C617.976868,531.803772 582.391602,573.895142 533.231018,586.971436 
	C486.987946,599.271667 441.600342,580.939270 419.890289,557.125183 
	C425.251160,557.125183 430.549805,557.747498 435.651886,557.010010 
	C451.791962,554.676819 464.347809,541.439819 466.086639,525.142273 
	C467.191376,514.787842 469.126587,504.785461 474.432434,495.627899 
	C487.470642,473.124786 513.070557,461.587646 538.789001,466.749390 
	C569.728943,472.959076 596.365662,456.228760 602.425354,426.517914 
	C603.444458,421.520874 603.263367,416.279022 603.668884,410.709290 
	C609.893616,433.521423 607.565430,455.114685 597.081055,476.603424 
	C585.667603,497.993988 568.808899,512.429260 547.045227,521.449768 
	C562.532715,521.225220 590.560242,496.773346 598.920349,476.983063 
M518.717468,510.727814 
	C519.578735,521.544006 519.576233,521.538513 509.685028,525.985535 
	C508.725708,526.416870 507.820618,526.968872 506.377380,527.738281 
	C511.500610,528.963745 515.994873,530.038696 520.544983,531.127075 
	C521.078552,535.884888 521.584106,540.392578 522.089600,544.900269 
	C522.421570,545.304077 522.753540,545.707825 523.085510,546.111633 
	C525.845703,534.088196 532.749756,531.442322 542.800659,535.858337 
	C542.993713,535.943115 543.330139,535.701477 544.013550,535.474854 
	C540.885376,531.878357 537.869507,528.410950 534.813477,524.897400 
	C537.050659,520.902893 539.164001,517.129578 541.984192,512.094177 
	C536.479858,514.332092 532.429199,515.978943 528.315918,517.651245 
	C526.531128,515.637817 525.010376,513.893188 523.456848,512.178284 
	C522.003052,510.573425 520.514587,509.000000 518.207764,506.514709 
	C518.464783,508.673126 518.542969,509.329681 518.717468,510.727814 
z"/>
<path fill="#FFFDFD" opacity="1.000000" stroke="none" 
	d="
M606.098389,383.028687 
	C604.831055,385.702332 603.563721,388.375977 602.243591,391.160950 
	C598.360840,344.540741 651.449524,289.579712 706.157837,283.085785 
	C774.423035,274.982666 830.339417,323.058441 839.885498,381.974579 
	C838.920715,381.176422 838.202332,380.681366 837.601440,380.070648 
	C821.072754,363.270477 796.697205,363.882843 781.288940,381.732452 
	C768.288208,396.793243 752.057556,404.594940 732.142944,403.943359 
	C714.775818,403.375153 700.427734,396.082611 688.797607,383.219269 
	C676.804260,369.954346 661.830566,364.067749 644.035400,365.977203 
	C627.963684,367.701721 615.743530,375.952911 606.267944,388.996033 
	C605.946045,388.946198 605.999084,388.986450 605.999146,388.986450 
	C606.363037,387.675507 606.726990,386.364532 607.426636,384.491425 
	C631.325317,340.833496 667.864807,326.076355 715.367126,334.638153 
	C714.175781,333.671814 712.958801,333.128448 711.685852,332.806671 
	C698.400635,329.447968 684.995850,329.001923 671.628906,331.977905 
	C641.766052,338.626526 619.499084,355.174744 606.098389,383.028687 
M748.805054,330.897919 
	C745.729858,332.097656 742.560974,333.106567 739.608337,334.555939 
	C737.124390,335.775208 735.486267,335.602997 733.732666,333.293182 
	C731.644104,330.542175 729.129150,328.114838 725.877319,324.531738 
	C726.244324,327.598358 726.410522,329.076721 726.599548,330.552155 
	C727.761414,339.623383 727.758850,339.613220 719.503235,343.192841 
	C717.891968,343.891449 716.328613,344.700378 713.783630,345.917175 
	C717.968079,346.832489 721.157654,347.691559 724.402405,348.193909 
	C727.553589,348.681763 728.907227,350.198273 728.920410,353.444977 
	C728.933044,356.564728 729.483582,359.682343 729.943054,364.243530 
	C732.491150,359.962433 734.355957,357.216461 735.808350,354.267365 
	C736.981628,351.884949 738.455200,351.286530 740.954834,351.936066 
	C744.311096,352.808136 747.747681,353.371246 752.014282,354.243805 
	C748.520508,349.914795 743.799194,346.626312 743.491760,342.967010 
	C743.181213,339.270508 747.245667,335.206482 749.336548,330.926575 
	C749.245178,330.894470 749.153809,330.862366 749.062439,330.830231 
	C749.212402,331.009308 749.362366,331.188385 748.805054,330.897919 
z"/>
<path fill="#F03A42" opacity="1.000000" stroke="none" 
	d="
M606.313538,383.227112 
	C619.499084,355.174744 641.766052,338.626526 671.628906,331.977905 
	C684.995850,329.001923 698.400635,329.447968 711.685852,332.806671 
	C712.958801,333.128448 714.175781,333.671814 715.367126,334.638153 
	C667.864807,326.076355 631.325317,340.833496 607.490601,384.150635 
	C606.988892,384.056549 606.758789,383.741089 606.313538,383.227112 
z"/>
<path fill="#F03840" opacity="1.000000" stroke="none" 
	d="
M598.483887,476.919556 
	C590.560242,496.773346 562.532715,521.225220 547.045227,521.449768 
	C568.808899,512.429260 585.667603,497.993988 596.973633,476.968536 
	C597.465454,476.771820 597.756470,476.813934 598.483887,476.919556 
z"/>
<path fill="#FFFDFD" opacity="1.000000" stroke="none" 
	d="
M605.920227,388.925171 
	C605.764221,389.405090 605.634033,389.906006 605.503906,390.406891 
	C605.488037,389.989380 605.472229,389.571838 605.727783,389.070374 
	C605.999084,388.986450 605.946045,388.946198 605.920227,388.925171 
z"/>
<path fill="#FFFDFD" opacity="1.000000" stroke="none" 
	d="
M594.879395,409.304565 
	C594.623108,409.063049 594.320374,408.803009 594.017700,408.542969 
	C594.228271,408.621948 594.438904,408.700928 594.774780,409.060852 
	C594.900085,409.341766 594.832886,409.286041 594.879395,409.304565 
z"/>
<path fill="#FFFDFD" opacity="1.000000" stroke="none" 
	d="
M418.632996,556.455444 
	C418.687988,556.432739 418.578003,556.478088 418.632996,556.455444 
z"/>
<path fill="#EF252D" opacity="1.000000" stroke="none" 
	d="
M590.884155,247.981903 
	C594.981689,246.269592 598.709778,244.646149 603.527893,242.548050 
	C601.767700,245.608734 600.638672,247.570068 599.511414,249.532394 
	C598.365051,251.527863 597.220276,253.524261 595.995728,255.658066 
	C599.091980,259.226654 602.109985,262.705078 605.820801,266.981995 
	C601.219238,266.004974 597.729797,264.971161 594.175842,264.649017 
	C592.685913,264.513947 590.518066,265.470154 589.603394,266.657990 
	C587.453369,269.449860 585.872437,272.679932 583.422302,276.809448 
	C582.760254,271.018585 582.259094,266.635498 581.716614,261.891235 
	C577.290405,260.841156 572.836914,259.784607 567.333679,258.479004 
	C570.670654,256.964935 573.094055,255.570724 575.698364,254.751480 
	C579.806213,253.459274 581.733154,251.421249 580.395630,246.804291 
	C579.648010,244.223724 579.899109,241.353821 579.669983,238.198242 
	C583.644287,241.816299 587.079529,244.943527 590.884155,247.981903 
z"/>
<path fill="#EE1C25" opacity="1.000000" stroke="none" 
	d="
M571.857971,275.644653 
	C561.965576,292.817474 557.299805,311.195953 558.941284,331.069397 
	C560.025452,344.195404 563.952026,356.432709 569.967102,368.628235 
	C569.600708,369.462952 569.419312,369.661865 569.237915,369.860779 
	C551.724487,338.114960 552.364319,306.536224 570.674500,275.135651 
	C571.445312,275.319122 571.651611,275.481903 571.857971,275.644653 
z"/>
<path fill="#EE1C25" opacity="1.000000" stroke="none" 
	d="
M573.449341,376.837036 
	C572.886536,375.808807 572.606445,375.126587 572.326416,374.444397 
	C572.707092,374.224884 573.087769,374.005402 573.468445,373.785889 
	C575.603394,376.557556 577.738342,379.329193 579.873291,382.100861 
	C579.435425,382.497803 578.997498,382.894714 578.559570,383.291656 
	C576.950378,381.255463 575.341248,379.219269 573.449341,376.837036 
z"/>
<path fill="#EE1C25" opacity="1.000000" stroke="none" 
	d="
M570.057251,368.968506 
	C571.514465,370.520233 572.696533,372.367462 573.878540,374.214691 
	C573.521118,374.496185 573.163696,374.777679 572.806274,375.059174 
	C571.678589,373.564117 570.550964,372.069061 569.330566,370.217407 
	C569.419312,369.661865 569.600708,369.462952 570.057251,368.968506 
z"/>
<path fill="#EE1C25" opacity="1.000000" stroke="none" 
	d="
M570.932861,274.907959 
	C571.306335,273.594666 571.986023,272.529724 572.665649,271.464783 
	C573.040222,271.697296 573.414795,271.929779 573.789368,272.162292 
	C573.300598,273.171906 572.811890,274.181519 572.090576,275.417908 
	C571.651611,275.481903 571.445312,275.319122 570.932861,274.907959 
z"/>
<path fill="#EF252D" opacity="1.000000" stroke="none" 
	d="
M474.124512,356.122498 
	C472.107544,360.224060 468.250671,364.496216 468.610535,368.377350 
	C468.945251,371.987000 473.773499,375.180023 476.761108,379.473511 
	C465.960663,373.994812 458.974060,377.026794 455.092102,387.851227 
	C454.835266,386.593262 454.504791,385.345215 454.333282,384.075684 
	C452.988495,374.122620 452.996521,374.127441 442.818085,371.851990 
	C441.858124,371.637390 440.929321,371.283539 438.986572,370.687988 
	C442.672333,369.073730 445.489227,367.629364 448.450867,366.602325 
	C451.392395,365.582184 452.734680,364.070801 452.129333,360.764984 
	C451.538300,357.537323 451.482605,354.211639 451.074554,349.603607 
	C454.201965,353.092773 456.709564,355.638641 458.908813,358.427673 
	C460.521881,360.473236 462.047852,360.808441 464.373657,359.660370 
	C467.335876,358.198181 470.473969,357.092285 473.862610,356.000061 
	C474.188995,356.167328 474.124512,356.122498 474.124512,356.122498 
z"/>
<path fill="#EE1C25" opacity="1.000000" stroke="none" 
	d="
M471.193268,390.814636 
	C470.349091,389.597504 469.783447,388.712128 469.217804,387.826752 
	C469.554260,387.542755 469.890747,387.258759 470.227234,386.974792 
	C471.427795,388.336853 472.628357,389.698914 473.828918,391.060974 
	C473.660278,391.322479 473.491608,391.583984 473.322968,391.845490 
	C472.705933,391.612457 472.088867,391.379456 471.193268,390.814636 
z"/>
<path fill="#EE1C25" opacity="1.000000" stroke="none" 
	d="
M484.753906,401.387817 
	C485.743195,402.413330 486.378296,403.124115 487.013367,403.834869 
	C486.771240,404.139954 486.529144,404.445007 486.287018,404.750092 
	C484.455505,403.361877 482.623993,401.973694 480.792480,400.585480 
	C481.029663,400.192535 481.266846,399.799591 481.504028,399.406647 
	C482.469238,399.962128 483.434479,400.517609 484.753906,401.387817 
z"/>
<path fill="#EE1C25" opacity="1.000000" stroke="none" 
	d="
M486.578674,403.820312 
	C488.294464,404.484680 489.600372,405.462067 490.906250,406.439484 
	C490.591278,406.834869 490.276276,407.230255 489.961273,407.625641 
	C488.697113,406.461578 487.432922,405.297485 486.578674,403.820312 
z"/>
<path fill="#EF252D" opacity="1.000000" stroke="none" 
	d="
M474.221252,356.189697 
	C474.176025,356.079346 474.098541,355.946686 474.021057,355.813995 
	C474.138000,355.839722 474.254913,355.865448 474.248169,356.006836 
	C474.124512,356.122498 474.188995,356.167328 474.221252,356.189697 
z"/>
<path fill="#EF252D" opacity="1.000000" stroke="none" 
	d="
M690.943298,519.321594 
	C689.800720,517.567261 688.928589,515.581726 687.517761,515.063965 
	C684.278076,513.875122 680.775940,513.401489 675.958862,512.317749 
	C679.960571,510.496948 682.866150,508.963501 685.923706,507.845917 
	C688.711609,506.826904 689.835815,505.390839 689.245911,502.283356 
	C688.631104,499.044891 688.627869,495.690308 688.248413,491.058075 
	C691.185181,494.326416 693.633789,496.650757 695.585938,499.335968 
	C697.560669,502.052429 699.538147,502.180023 702.299500,500.715088 
	C705.030273,499.266388 707.957092,498.187164 712.142700,496.358276 
	C709.241333,501.493774 707.028381,505.410706 704.726196,509.485504 
	C707.757080,512.945190 710.691040,516.294373 714.444214,520.578552 
	C710.589172,519.852051 707.669861,519.721375 705.088379,518.720032 
	C700.888123,517.090759 698.686646,518.615540 696.978271,522.349548 
	C695.830383,524.858521 694.169250,527.132690 692.129883,530.522217 
	C691.661255,526.176331 691.315186,522.966675 690.943298,519.321594 
z"/>
<path fill="#F0373E" opacity="1.000000" stroke="none" 
	d="
M670.015930,423.964935 
	C689.346741,441.305511 698.784241,463.116608 699.374390,488.937836 
	C696.754822,464.282013 687.396790,442.858490 669.221863,425.211548 
	C669.534607,424.482025 669.775269,424.223480 670.015930,423.964935 
z"/>
<path fill="#EE1C25" opacity="1.000000" stroke="none" 
	d="
M661.340637,418.601685 
	C662.778137,418.719025 664.434021,419.334930 666.089905,419.950867 
	C665.821594,420.514374 665.553284,421.077881 665.285034,421.641388 
	C664.043030,420.794342 662.801025,419.947327 661.340637,418.601685 
z"/>
<path fill="#EE1C25" opacity="1.000000" stroke="none" 
	d="
M669.797913,423.613159 
	C669.775269,424.223480 669.534607,424.482025 669.084717,424.903839 
	C667.812561,424.136902 666.749634,423.206726 665.686707,422.276550 
	C665.966309,421.885223 666.245911,421.493896 666.525513,421.102570 
	C667.543640,421.822174 668.561768,422.541779 669.797913,423.613159 
z"/>
<path fill="#EE1C25" opacity="1.000000" stroke="none" 
	d="
M655.603699,413.546967 
	C657.047546,414.024780 658.172058,414.767273 659.296570,415.509766 
	C659.069458,415.907166 658.842346,416.304565 658.615173,416.701965 
	C657.483582,416.117462 656.351990,415.532928 654.936646,414.648895 
	C654.863342,414.170166 655.073914,413.990936 655.603699,413.546967 
z"/>
<path fill="#EE1C25" opacity="1.000000" stroke="none" 
	d="
M661.255615,418.000977 
	C659.935547,417.708069 659.059753,417.071045 658.184021,416.434052 
	C658.448853,416.082489 658.713745,415.730927 658.978638,415.379364 
	C659.885742,416.138550 660.792908,416.897705 661.255615,418.000977 
z"/>
<path fill="#EF242D" opacity="1.000000" stroke="none" 
	d="
M518.669312,510.356995 
	C518.542969,509.329681 518.464783,508.673126 518.207764,506.514709 
	C520.514587,509.000000 522.003052,510.573425 523.456848,512.178284 
	C525.010376,513.893188 526.531128,515.637817 528.315918,517.651245 
	C532.429199,515.978943 536.479858,514.332092 541.984192,512.094177 
	C539.164001,517.129578 537.050659,520.902893 534.813477,524.897400 
	C537.869507,528.410950 540.885376,531.878357 544.013550,535.474854 
	C543.330139,535.701477 542.993713,535.943115 542.800659,535.858337 
	C532.749756,531.442322 525.845703,534.088196 523.085510,546.111633 
	C522.753540,545.707825 522.421570,545.304077 522.089600,544.900269 
	C521.584106,540.392578 521.078552,535.884888 520.544983,531.127075 
	C515.994873,530.038696 511.500610,528.963745 506.377380,527.738281 
	C507.820618,526.968872 508.725708,526.416870 509.685028,525.985535 
	C519.576233,521.538513 519.578735,521.544006 518.669312,510.356995 
z"/>
<path fill="#EF252D" opacity="1.000000" stroke="none" 
	d="
M749.393555,331.303497 
	C747.245667,335.206482 743.181213,339.270508 743.491760,342.967010 
	C743.799194,346.626312 748.520508,349.914795 752.014282,354.243805 
	C747.747681,353.371246 744.311096,352.808136 740.954834,351.936066 
	C738.455200,351.286530 736.981628,351.884949 735.808350,354.267365 
	C734.355957,357.216461 732.491150,359.962433 729.943054,364.243530 
	C729.483582,359.682343 728.933044,356.564728 728.920410,353.444977 
	C728.907227,350.198273 727.553589,348.681763 724.402405,348.193909 
	C721.157654,347.691559 717.968079,346.832489 713.783630,345.917175 
	C716.328613,344.700378 717.891968,343.891449 719.503235,343.192841 
	C727.758850,339.613220 727.761414,339.623383 726.599548,330.552155 
	C726.410522,329.076721 726.244324,327.598358 725.877319,324.531738 
	C729.129150,328.114838 731.644104,330.542175 733.732666,333.293182 
	C735.486267,335.602997 737.124390,335.775208 739.608337,334.555939 
	C742.560974,333.106567 745.729858,332.097656 749.128235,331.118134 
	C749.451416,331.338348 749.393555,331.303497 749.393555,331.303497 
z"/>
<path fill="#EF252D" opacity="1.000000" stroke="none" 
	d="
M749.481873,331.352905 
	C749.362366,331.188385 749.212402,331.009308 749.062439,330.830231 
	C749.153809,330.862366 749.245178,330.894470 749.365051,331.115051 
	C749.393555,331.303497 749.451416,331.338348 749.481873,331.352905 
z"/>
</svg>